<svg xmlns="http://www.w3.org/2000/svg" width="128" height="128" viewBox="0 0 128 128">
    <defs>
        <linearGradient id="a" x1="36.78%" x2="110.78%" y1="-236.693%" y2="1304.548%">
            <stop offset="0%" stop-color="#9BBDFF"/>
            <stop offset="99.46%" stop-color="#9BBDFF" stop-opacity="0"/>
        </linearGradient>
        <linearGradient id="b" x1="25.906%" x2="99.906%" y1="-458.903%" y2="1123.257%">
            <stop offset="0%" stop-color="#9BBDFF"/>
            <stop offset="99.46%" stop-color="#9BBDFF" stop-opacity="0"/>
        </linearGradient>
        <linearGradient id="c" x1="16.28%" x2="90.28%" y1="-663.356%" y2="897.613%">
            <stop offset="0%" stop-color="#9BBDFF"/>
            <stop offset="99.46%" stop-color="#9BBDFF" stop-opacity="0"/>
        </linearGradient>
        <linearGradient id="d" x1="8.756%" x2="82.756%" y1="-817.121%" y2="735.51%">
            <stop offset="0%" stop-color="#9BBDFF"/>
            <stop offset="99.46%" stop-color="#9BBDFF" stop-opacity="0"/>
        </linearGradient>
        <linearGradient id="e" x1="1.284%" x2="75.284%" y1="-961.981%" y2="570.562%">
            <stop offset="0%" stop-color="#9BBDFF"/>
            <stop offset="99.46%" stop-color="#9BBDFF" stop-opacity="0"/>
        </linearGradient>
        <linearGradient id="f" x1="-6.23%" x2="67.77%" y1="-1119.083%" y2="415.094%">
            <stop offset="0%" stop-color="#9BBDFF"/>
            <stop offset="99.46%" stop-color="#9BBDFF" stop-opacity="0"/>
        </linearGradient>
        <linearGradient id="g" x1="-13.73%" x2="60.27%" y1="-1300.002%" y2="260.967%">
            <stop offset="0%" stop-color="#9BBDFF"/>
            <stop offset="99.46%" stop-color="#9BBDFF" stop-opacity="0"/>
        </linearGradient>
        <linearGradient id="h" x1="8.965%" x2="86.806%" y1="87.946%" y2="15.648%">
            <stop offset="0%" stop-opacity=".6"/>
            <stop offset="99.46%" stop-opacity=".4"/>
        </linearGradient>
        <linearGradient id="i" x1="-.146%" x2="100.036%" y1="49.913%" y2="49.913%">
            <stop offset="0%" stop-color="#D0DAF5"/>
            <stop offset="100%" stop-color="#8598E1"/>
        </linearGradient>
        <linearGradient id="j" x1="8.845%" x2="87.061%" y1="86.453%" y2="17.691%">
            <stop offset="0%" stop-color="#EBF2FA"/>
            <stop offset="100%" stop-color="#B8C7F1"/>
        </linearGradient>
        <linearGradient id="k" x1="-.227%" x2="99.645%" y1="49.865%" y2="49.865%">
            <stop offset="0%" stop-color="#D0DAF5"/>
            <stop offset="100%" stop-color="#8598E1"/>
        </linearGradient>
        <linearGradient id="l" x1="8.74%" x2="86.622%" y1="86.125%" y2="17.359%">
            <stop offset="0%" stop-color="#EBF2FA"/>
            <stop offset="100%" stop-color="#B8C7F1"/>
        </linearGradient>
        <linearGradient id="m" x1="86.223%" x2="16.975%" y1="23.934%" y2="78.656%">
            <stop offset="0%" stop-color="#EBF2FA"/>
            <stop offset="100%" stop-color="#AABDED"/>
        </linearGradient>
        <linearGradient id="n" x1="137.678%" x2="-35.372%" y1="65.21%" y2="39.188%">
            <stop offset="0%" stop-color="#B2C1F0"/>
            <stop offset="100%" stop-color="#8FA3E9"/>
        </linearGradient>
    </defs>
    <g fill="none" fill-rule="evenodd">
        <path fill="#2153A5" d="M89.369 41.493l-24.98-14.29-24.88 14.29L64.49 55.885l9.686-5.574z"/>
        <path fill="#343434" d="M64.49 55.885l9.686-5.574z"/>
        <path fill="#2153A5" d="M116.184 56.899l-24.98-14.392-24.879 14.392 10.706 6.08 14.275 8.21z"/>
        <path fill="#343434" d="M91.306 73.318l1.223-.71z"/>
        <path fill="#2153A5" d="M89.573 72.304L64.49 57.912 39.714 72.304l24.98 14.29zM62.859 87.608l-24.98-14.29-24.777 14.29L38.082 102z"/>
        <path fill="#D6E0F7" d="M67.243 38.96c2.04 1.114 2.04 3.04.102 4.155-1.937 1.115-5.2 1.115-7.24 0-2.038-1.115-2.038-3.04-.101-4.156 2.04-1.114 5.2-1.114 7.24 0z"/>
        <path fill="url(#a)" d="M24.165 8.31c1.02.609 1.02 1.521 0 2.028-1.02.608-2.651.608-3.569 0-1.02-.608-1.02-1.52 0-2.027 1.02-.608 2.55-.608 3.569 0z" transform="translate(50.725 37.135)"/>
        <path fill="url(#b)" d="M33.647 13.682c1.02.609 1.02 1.52 0 2.027-1.02.609-2.65.609-3.569 0-1.02-.608-1.02-1.52 0-2.027.918-.506 2.55-.506 3.57 0z" transform="translate(50.725 37.135)"/>
        <path fill="url(#c)" d="M42.824 19.155c1.02.609 1.02 1.52 0 2.027-1.02.609-2.55.507-3.57 0-1.019-.608-1.019-1.52 0-2.027.919-.608 2.55-.608 3.57 0z" transform="translate(50.725 37.135)"/>
        <path fill="url(#d)" d="M33.443 24.527c1.02.608 1.02 1.52 0 2.027-1.02.608-2.65.608-3.568 0-1.02-.608-1.02-1.52 0-2.128.917-.507 2.549-.406 3.568.101z" transform="translate(50.725 37.135)"/>
        <path fill="url(#e)" d="M24.063 30c1.02.608 1.02 1.52 0 2.027-1.02.507-2.651.608-3.569 0-1.02-.608-1.02-1.52 0-2.128 1.02-.608 2.55-.507 3.569.101z" transform="translate(50.725 37.135)"/>
        <path fill="url(#f)" d="M14.682 35.372c1.02.608 1.02 1.52 0 2.027-1.02.608-2.65.608-3.568 0-1.02-.608-1.02-1.52 0-2.129.917-.506 2.549-.506 3.568.102z" transform="translate(50.725 37.135)"/>
        <path fill="url(#g)" d="M5.302 40.845c1.02.608 1.02 1.52 0 2.027-1.02.608-2.55.506-3.569 0-1.02-.608-1.02-1.52 0-2.027.918-.609 2.55-.609 3.569 0z" transform="translate(50.725 37.135)"/>
        <path fill="url(#h)" d="M41.09 52.5c-3.16-1.926-7.545-2.838-11.827-2.635-4.079-.101-8.157.71-11.318 2.432-6.016 3.345-6.22 8.92-.408 12.365 3.161 1.926 7.545 2.838 11.828 2.635 4.078.102 8.157-.71 11.317-2.432 6.016-3.345 6.22-8.92.408-12.365z" transform="translate(13 27)"/>
        <g>
            <path fill="url(#i)" d="M29.467 8.514s0 .1 0 0c0-2.028-29.06-1.926-28.855.405v4.46c0 2.026 1.325 4.155 3.976 5.776 5.506 3.345 14.683 3.446 20.392.203 2.957-1.622 4.487-3.851 4.487-5.98V8.514z" transform="translate(23.196 72.608)"/>
            <path fill="url(#j)" d="M4.588 14.29c-5.506-3.344-5.302-8.614.408-11.756 5.71-3.142 14.886-3.142 20.392.202 5.506 3.345 5.302 8.615-.408 11.757-5.71 3.142-14.886 3.142-20.392-.202z" transform="translate(23.196 72.608)"/>
        </g>
        <g>
            <path fill="url(#k)" d="M23.757 7.5C23.757 5.878 0 5.98.204 7.804v3.75c0 1.723 1.121 3.345 3.263 4.662 4.486 2.737 12.031 2.737 16.721.203 2.447-1.318 3.67-3.142 3.67-4.966L23.758 7.5z" transform="translate(26.255 67.54)"/>
            <path fill="url(#l)" d="M3.467 12.264C-1.02 9.527-.918 5.27 3.773 2.635 8.463 0 15.906.101 20.494 2.838c4.588 2.736 4.384 6.993-.306 9.628C15.396 15 7.953 14.9 3.467 12.264z" transform="translate(26.255 67.54)"/>
        </g>
        <path fill="#D7E1F7" d="M50.012 49.399L44.71 45.04a7.734 7.734 0 0 0 4.18.912l5.914 3.344c-1.733.102-3.263.811-4.384.203l-.408-.101z"/>
        <path fill="url(#m)" d="M22.125 53.21l-5.811-3.345c-10.604-12.06.306-29.696 5.71-32.737l7.035 2.94c-.102-.102-17.64 21.08-6.934 33.141" transform="translate(13 27)"/>
        <path fill="#D7E1F7" d="M43.996 46.56L38.694 41.9l2.243-1.318 5.914 3.345-1.122 1.621z"/>
        <path fill="#ECF2FA" d="M43.486 44.027l-5.71-6.081.816-.507 5.914 3.345-.51.81z"/>
        <path fill="#D7E1F7" d="M40.733 47.372l-5.811-3.345 2.854-6.081 5.914 3.345-.51 3.85z"/>
        <path fill="url(#n)" d="M31.506 13.784v4.46l2.243-1.318c.102.304 2.243 5.777 7.953 5.371l-2.243 5.068-7.75 1.723c-.203.101-.305.101-.509.203-2.855 1.621-2.651 7.195 3.569 11.35v5.17l-12.847 7.196c-10.604-12.061.305-29.696 5.71-32.737l2.854-6.08 1.02-.406z" transform="translate(13 27)"/>
        <path fill="#2153A5" d="M45.424 47.878c.611-.304 1.121-.101 1.121.608 0 .71-.51 1.52-1.121 1.825-.612.304-1.122.101-1.122-.608.102-.71.51-1.52 1.122-1.825z"/>
    </g>
</svg>
