<svg xmlns="http://www.w3.org/2000/svg" width="128" height="128" viewBox="0 0 128 128">
    <defs>
        <linearGradient id="a" x1="-12.804%" x2="73.996%" y1="-25.045%" y2="72.929%">
            <stop offset=".541%" stop-opacity=".4"/>
            <stop offset="100%" stop-opacity=".6"/>
        </linearGradient>
        <linearGradient id="b" x1="30.345%" x2="117.145%" y1="24.076%" y2="121.401%">
            <stop offset=".541%" stop-opacity=".4"/>
            <stop offset="100%" stop-opacity=".6"/>
        </linearGradient>
        <linearGradient id="c" x1="68.875%" x2="36.344%" y1="105.535%" y2="31.154%">
            <stop offset=".541%" stop-opacity=".4"/>
            <stop offset="100%" stop-opacity=".6"/>
        </linearGradient>
        <linearGradient id="d" x1="58.005%" x2="54.234%" y1="69.461%" y2="59.704%">
            <stop offset="0%" stop-color="#2260BB"/>
            <stop offset="100%" stop-color="#3184F8"/>
        </linearGradient>
        <linearGradient id="e" x1="57.355%" x2="49.164%" y1="71.802%" y2="47.92%">
            <stop offset="0%" stop-color="#4485FB"/>
            <stop offset="100%" stop-color="#92B9F8"/>
        </linearGradient>
        <linearGradient id="f" x1="58.039%" x2="49.147%" y1="74.189%" y2="47.919%">
            <stop offset="0%" stop-color="#8AA5E8"/>
            <stop offset="99.46%" stop-color="#CEE0F5"/>
        </linearGradient>
        <linearGradient id="g" x1="104.79%" x2="-4.673%" y1="49.78%" y2="49.78%">
            <stop offset="0%" stop-color="#8AA5E8"/>
            <stop offset="98.92%" stop-color="#FFF"/>
        </linearGradient>
        <linearGradient id="h" x1="104.693%" x2="-4.77%" y1="49.821%" y2="49.821%">
            <stop offset="0%" stop-color="#8AA5E8"/>
            <stop offset="98.92%" stop-color="#FFF"/>
        </linearGradient>
        <linearGradient id="i" x1="50.058%" x2="50.058%" y1="33.26%" y2="96.274%">
            <stop offset="0%" stop-color="#2260BB"/>
            <stop offset="100%" stop-color="#3184F8"/>
        </linearGradient>
        <linearGradient id="j" x1="49.961%" x2="49.961%" y1="32.548%" y2="99.552%">
            <stop offset="0%" stop-color="#2260BB"/>
            <stop offset="100%" stop-color="#3184F8"/>
        </linearGradient>
        <linearGradient id="k" x1="116.272%" x2="-25.899%" y1="100.813%" y2="2.354%">
            <stop offset="0%" stop-color="#2260BB"/>
            <stop offset="54.59%" stop-color="#3184F8"/>
        </linearGradient>
        <linearGradient id="l" x1="-4.231%" x2="109.802%" y1="53.51%" y2="47.036%">
            <stop offset="0%" stop-color="#2260BB"/>
            <stop offset="54.59%" stop-color="#3184F8"/>
        </linearGradient>
        <linearGradient id="m" x1="49.102%" x2="51.631%" y1="52.955%" y2="45.351%">
            <stop offset="0%" stop-color="#2260BB"/>
            <stop offset="54.59%" stop-color="#3184F8"/>
        </linearGradient>
        <linearGradient id="n" x1="116.306%" x2="-25.866%" y1="100.599%" y2="2.14%">
            <stop offset="0%" stop-color="#2260BB"/>
            <stop offset="54.59%" stop-color="#3184F8"/>
        </linearGradient>
        <linearGradient id="o" x1="-4.198%" x2="109.836%" y1="53.928%" y2="47.453%">
            <stop offset="0%" stop-color="#2260BB"/>
            <stop offset="54.59%" stop-color="#3184F8"/>
        </linearGradient>
        <linearGradient id="p" x1="49.073%" x2="51.6%" y1="52.926%" y2="45.31%">
            <stop offset="0%" stop-color="#2260BB"/>
            <stop offset="54.59%" stop-color="#3184F8"/>
        </linearGradient>
    </defs>
    <g fill="none" fill-rule="evenodd">
        <path fill="url(#a)" d="M61.3 31.3l-11.6-6.8-8.5-4.9c-.8-.5-1.8-.9-2.8-1.1-.7-.2-1.3-.3-1.8-.3h-3.4c-.6 0-.9.2-.7.5.1.2.5.6 1.1.9l2.6 1.5 6.3 3.6c.7.4 1.7.8 2.6 1.1l2.4.7L59 33.2l2.3-1.9z" transform="translate(12 26)"/>
        <path fill="url(#b)" d="M35.3 47l-11.6-6.8-8.5-4.9c-.8-.5-1.8-.9-2.8-1.1-.7-.2-1.3-.3-1.8-.3H7.2c-.6 0-.9.2-.7.5.1.2.5.6 1.1.9l2.6 1.5 6.3 3.6c.7.4 1.7.8 2.6 1.1l2.4.7L33 49l2.3-2z" transform="translate(12 26)"/>
        <path fill="url(#c)" d="M112.6 58.7c-.1-.2-.5-.6-1.1-.9l-2.6-1.5-6.3-3.6c-.7-.4-1.7-.8-2.6-1.1l-3-.9.1-.1-11.2-6.5c3.2-2.4 6.4-5 9.2-7.9 1.9-1.8 3.7-3.8 5.1-6 1-1.6 1.9-3.4 1.4-5.4-.5-2.1-2.7-3-4.7-3.2-2.1-.2-3.9.2-6 .6-3.7.6-7.3 1.7-10.8 2.8-6.5 2.1-12.8 4.5-19 7.4-7.6 3.5-14.9 7.6-22 12-6.7 4.1-13.2 8.7-19.1 13.9-3.3 2.9-6.7 6.1-8.7 10.1-1 1.9-2.1 4.5 0 6 .8.6 1.8.8 2.8 1 .6.1 1.2.1 1.9.2h1.8c.7 0 1.1-.1 1.5-.1.6-.1 1.3-.2 1.9-.3 1.3-.2 2.6-.5 3.9-.8 3.1-.7 6.2-1.7 9.3-2.7 7.5-2.6 14.7-5.7 21.7-9.3.4-.2.7-.4 1.1-.6l11.4 6.6h.1l8.9 5.1c.8.5 1.8.9 2.8 1.1.7.2 1.3.3 1.8.3h3.4c.6 0 .9-.2.7-.5-.1-.2-.5-.6-1.1-.9L82.5 72l-6.3-3.6c-.7-.4-1.7-.8-2.6-1.1l-2.9-.8.1-.1-10.7-6.2C66.6 56.8 72.9 53.1 79 49c1.5-1 3-2 4.4-3.1l11.4 6.6h.1l8.9 5.1c.8.5 1.8.9 2.8 1.1.7.2 1.3.3 1.8.3h3.4c.7.2.9 0 .8-.3z" transform="translate(12 26)"/>
        <path fill="url(#d)" d="M95.2 19.3c.6-1.5.8-3.3.5-4.8-.4-2-2.6-3.2-4.5-3.5-2-.3-4.1 0-6.1.3-3.6.5-7.2 1.6-10.7 2.7-6.6 2.1-13 4.8-19.3 7.7-7.2 3.3-14.2 7.1-20.9 11.2-6.6 4-13 8.3-18.9 13.2-3.3 2.8-6.6 5.7-9.2 9.2-1.9 2.5-4 5.8-2.8 8.9 3.9 10.2 40 1 56.5-9.6 26.1-16.7 32.3-27.3 35.4-35.3z" transform="translate(12 26)"/>
        <path fill="url(#e)" d="M95.2 13.8c-.5-2.1-2.7-3-4.7-3.2-2.1-.2-3.9.2-6 .6-3.7.6-7.3 1.7-10.8 2.8-6.5 2.1-12.8 4.5-19 7.4-7.6 3.5-14.9 7.6-22 12-6.7 4.1-13.2 8.7-19.1 13.9-3.3 2.9-6.7 6.1-8.7 10.1-1 1.9-2.1 4.5 0 6 .8.6 1.8.8 2.8 1 .6.1 1.2.1 1.9.2h1.8c.7 0 1.1-.1 1.5-.1.6-.1 1.3-.2 1.9-.3 1.3-.2 2.6-.5 3.9-.8 3.1-.7 6.2-1.7 9.3-2.7 7.5-2.6 14.7-5.7 21.7-9.3 7.9-4 15.6-8.4 22.9-13.3 5.7-3.8 11.3-8 16.2-12.8 1.9-1.8 3.7-3.8 5.1-6 .9-1.7 1.8-3.5 1.3-5.5z" transform="translate(12 26)"/>
        <path fill="url(#f)" d="M79 12.5c-2.3.6-4.7 1.3-6.9 2.1-6 2-11.9 4.3-17.6 6.9-7.5 3.5-15 7.3-22 11.7-6.7 4.1-12.9 8.9-18.8 14.1-2.4 2.2-5 4.5-6.9 7.2-.1.1-.2.2-.2.3 0 0 4.5-2.1 12.4 6.3 1 1 2.5 1.4 3.8 1 1.8-.5 3.6-1.1 5.3-1.7 9.4-3.2 18.4-7.4 27.1-12.1C61.3 45 67.3 41.5 73 37.6c5.6-3.8 10.4-7.3 15.2-12.1 1.2-1.2 2.4-2.4 3.4-3.7.8-.9.7-2.3 0-3.3-4.1-5-8.9-6.4-12.6-6z" transform="translate(12 26)"/>
        <g stroke-width="2">
            <path stroke="url(#g)" d="M19.2 18.3c4.2 2.4 4.2 6.4 0 8.8-4.2 2.4-11 2.4-15.1 0-4.2-2.4-4.2-6.4 0-8.8 4.1-2.4 10.9-2.4 15.1 0z" transform="translate(38 47)"/>
            <path stroke="url(#h)" d="M46.4 2.5c4.2 2.4 4.2 6.4 0 8.8-4.2 2.4-11 2.4-15.1 0-4.2-2.4-4.2-6.4 0-8.8C35.4.1 42.2.1 46.4 2.5z" transform="translate(38 47)"/>
        </g>
        <path fill="url(#i)" d="M19.2 18.4c4.2 2.4 4.2 6.4 0 8.8-4.2 2.4-11 2.4-15.1 0-4.2-2.4-4.2-6.4 0-8.8 4.1-2.5 10.9-2.5 15.1 0z" transform="translate(38 46)"/>
        <path fill="url(#j)" d="M46.4 2.6c4.2 2.4 4.2 6.4 0 8.8-4.2 2.4-11 2.4-15.1 0-4.2-2.4-4.2-6.4 0-8.8C35.4.2 42.2.2 46.4 2.6z" transform="translate(38 46)"/>
        <path fill="#3161BE" d="M83.3 58l.6 1.6 4 2.2 1.7-1.2-5.8-3.5zM56.4 73.6l.6 1.6 4.2 2.4 2.2-1-6.5-3.8zM37.5 63.7l3 1.8 2.8-1-4.4-1.7zM64.7 48.3l2.8 1.6 2.5-1.1-3.4-1.4z" opacity=".5"/>
        <path fill="url(#k)" d="M12.1 5.8c.6.3 1.2 1 1.6 1.7l2 3.6c.7 1.4.7 2.8 0 3.3l-2 1.4c-.4.3-1 .2-1.6-.1l-9.2-5.3C1.7 9.7.8 8.1.8 6.7v-5C.8.4 1.8-.2 2.9.5l9.2 5.3z" transform="translate(12 42)"/>
        <path fill="url(#l)" d="M74.2 42.5c1.2.7 2.1 2.3 2.1 3.7v5c0 1.3-1 1.9-2.1 1.2L65 47.1c-.6-.3-1.2-1-1.6-1.7l-2-3.7c-.7-1.4-.7-2.8 0-3.3l2-1.4c.4-.3 1-.2 1.6.1l9.2 5.4z" transform="translate(12 42)"/>
        <path fill="url(#m)" d="M61.5 38.4l.2-.1-45.9-26.7.2.6c-.1-.1.1 0-.1-.1-5.2-3.2-7.6-1.4-.5 2.5l45.1 26.2c4.3 3 10.4 4.3 1-2.4z" transform="translate(12 42)"/>
        <g>
            <path fill="url(#n)" d="M12 6.3c.6.3 1.2 1 1.6 1.7l2 3.6c.7 1.4.7 2.8 0 3.3l-2 1.4c-.4.3-1 .2-1.6-.1l-9.2-5.3C1.6 10.2.7 8.6.7 7.2v-5C.7.9 1.7.3 2.8 1L12 6.3z" transform="translate(39 26)"/>
            <path fill="url(#o)" d="M74.1 42.9c1.2.7 2.1 2.3 2.1 3.7v5c0 1.3-1 1.9-2.1 1.2l-9.2-5.3c-.6-.3-1.2-1-1.6-1.7l-2-3.7c-.7-1.4-.7-2.8 0-3.3l2-1.4c.4-.3 1-.2 1.6.1l9.2 5.4z" transform="translate(39 26)"/>
            <path fill="url(#p)" d="M61.4 38.8l.2-.1-45.9-26.6.2.6c-.1-.1.1 0-.1-.1-5.2-3.2-7.6-1.4-.5 2.5l45.1 26.2c4.3 3 10.5 4.2 1-2.5z" transform="translate(39 26)"/>
        </g>
    </g>
</svg>
