<svg xmlns="http://www.w3.org/2000/svg" width="128" height="128" viewBox="0 0 128 128">
    <defs>
        <linearGradient id="a" x1="-.037%" x2="100.021%" y1="49.897%" y2="49.897%">
            <stop offset="0%" stop-opacity=".6"/>
            <stop offset="99.46%" stop-opacity=".4"/>
        </linearGradient>
        <linearGradient id="b" x1="-.03%" y1="50.281%" y2="50.281%">
            <stop offset="0%" stop-opacity=".6"/>
            <stop offset="99.46%" stop-opacity=".4"/>
        </linearGradient>
        <linearGradient id="c" x1="99.86%" x2="-.4%" y1="50.164%" y2="50.164%">
            <stop offset="0%" stop-color="#A9C7FD"/>
            <stop offset="99.46%" stop-color="#CEE0F5"/>
        </linearGradient>
        <linearGradient id="d" x1="1.874%" x2="103.396%" y1="5.859%" y2="94.304%">
            <stop offset="0%" stop-color="#A9C2FB"/>
            <stop offset="100%" stop-color="#2D5CB1"/>
        </linearGradient>
        <linearGradient id="e" x1="-9.818%" x2="64.589%" y1="49.955%" y2="49.955%">
            <stop offset="31.89%" stop-color="#EDF4FB"/>
            <stop offset="100%" stop-color="#CCE0F4"/>
        </linearGradient>
        <linearGradient id="f" x1="1.342%" x2="148.283%" y1="50.084%" y2="50.084%">
            <stop offset="0%" stop-color="#2260BB"/>
            <stop offset="100%" stop-color="#3184F8"/>
        </linearGradient>
        <linearGradient id="g" x1="-8.967%" x2="114.183%" y1="27.092%" y2="75.021%">
            <stop offset="31.89%" stop-color="#EDF4FB"/>
            <stop offset="100%" stop-color="#CCE0F4"/>
        </linearGradient>
        <linearGradient id="h" x1="-121.634%" x2="155.299%" y1="50.055%" y2="50.055%">
            <stop offset="0%" stop-color="#2260BB"/>
            <stop offset="100%" stop-color="#3184F8"/>
        </linearGradient>
        <linearGradient id="i" x1="50.267%" x2="50.267%" y1="97.241%" y2="-4.329%">
            <stop offset="0%" stop-color="#407DEE"/>
            <stop offset="100%" stop-color="#659DFC"/>
        </linearGradient>
        <linearGradient id="j" x1="50.296%" x2="50.296%" y1="96.927%" y2="-2.216%">
            <stop offset="0%" stop-color="#3161BE"/>
            <stop offset="100%" stop-color="#3161BE" stop-opacity="0"/>
        </linearGradient>
        <linearGradient id="k" x1="50.08%" x2="50.08%" y1="1.29%" y2="176.601%">
            <stop offset="0%" stop-color="#659DFC"/>
            <stop offset="100%" stop-color="#BAD0FC"/>
        </linearGradient>
        <linearGradient id="l" x1="-60.004%" x2="110.976%" y1="50.478%" y2="50.478%">
            <stop offset="31.89%" stop-color="#EDF4FB"/>
            <stop offset="100%" stop-color="#CCE0F4"/>
        </linearGradient>
        <linearGradient id="m" x1="-60.49%" x2="110.837%" y1="49.927%" y2="49.927%">
            <stop offset="0%" stop-color="#A9C7FD"/>
            <stop offset="99.46%" stop-color="#CEE0F5"/>
        </linearGradient>
        <linearGradient id="n" x1="-70.764%" x2="115.202%" y1="50.039%" y2="50.039%">
            <stop offset="0%" stop-color="#A9C7FD"/>
            <stop offset="99.46%" stop-color="#CEE0F5"/>
        </linearGradient>
        <linearGradient id="o" x1="49.407%" x2="49.407%" y1="2.095%" y2="286.74%">
            <stop offset="0%" stop-color="#659DFC"/>
            <stop offset="100%" stop-color="#96BCFD"/>
        </linearGradient>
        <linearGradient id="p" x1="63.357%" x2="71.849%" y1="33.033%" y2="22.316%">
            <stop offset="0%" stop-color="#2260BB"/>
            <stop offset="100%" stop-color="#3184F8"/>
        </linearGradient>
        <linearGradient id="q" x1="74.344%" x2="30.75%" y1="9.5%" y2="92.539%">
            <stop offset="0%" stop-color="#2260BB"/>
            <stop offset="100%" stop-color="#3184F8"/>
        </linearGradient>
        <linearGradient id="r" x1=".08%" x2="99.822%" y1="50.089%" y2="50.089%">
            <stop offset="31.89%" stop-color="#EDF4FB"/>
            <stop offset="100%" stop-color="#CCE0F4"/>
        </linearGradient>
        <linearGradient id="s" x1="108.178%" x2="57.021%" y1="69.429%" y2="48.501%">
            <stop offset="0%" stop-color="#407DED"/>
            <stop offset="100%" stop-color="#96BCFD"/>
        </linearGradient>
        <linearGradient id="t" x1="-42.775%" x2="143.542%" y1="50.388%" y2="50.388%">
            <stop offset="31.89%" stop-color="#EDF4FB"/>
            <stop offset="100%" stop-color="#CCE0F4"/>
        </linearGradient>
    </defs>
    <g fill="none" fill-rule="evenodd">
        <path fill="url(#a)" d="M69.1 9.2L45.2 42v6H47l32.6-18.8h19.7l2.4-1.2z" transform="translate(26 59)"/>
        <path fill="url(#b)" d="M24.1.4c-3.9 0-7.1.9-7.8 2.2H3.8S-1.4 12 2.2 12h14.7c2 0 4.1-.5 5.6-1.4 2.2-1.3 2.9-3.2 1.9-4.8 4.3 0 7.7-1.2 7.7-2.7 0-1.5-3.6-2.7-8-2.7z" transform="translate(26 59)"/>
        <path fill="url(#c)" d="M19.2 20c.1-1.3-16.2-1.5-16.2-.3l-.1 25.6c0 1.2.8 2.4 2.4 3.3 3.2 1.8 8.3 1.8 11.5 0 1.6-.9 2.4-2.1 2.4-3.3l.1-25.6c-.1.1-.1.2-.1.3z" transform="translate(17 21)"/>
        <path fill="url(#d)" d="M88.5 26.6L40.8 1.5l.1 37L8.8 57l45.4 29 34.4-19.9z" transform="translate(17 21)"/>
        <path fill="#A9C7FD" d="M71.2 107L25.8 80.6V78l45.3 26.4z"/>
        <path fill="url(#e)" d="M54.1 83.4L8.8 57l32.1-18.5 45.4 26.3z" transform="translate(17 21)"/>
        <path fill="#A9C7FD" d="M103.3 85.8L57.9 59.5l-.1-37 45.4 26.3z"/>
        <path fill="url(#f)" d="M84.2 60.8L43.1 37 43 5.4l41.1 23.9z" transform="translate(17 21)"/>
        <path fill="url(#g)" d="M86.2 27.8L40.8 1.5 43.1.2l45.4 26.4z" transform="translate(17 21)"/>
        <path fill="#E0E9FD" d="M82.4 59v5.1l3.1 1.7v-5z"/>
        <path fill="#6EA9FF" d="M82.4 55v4l3.1 1.8v-4z"/>
        <path fill="#E0E9FD" d="M77.9 57.9v3.5l3 1.8.1-3.5z"/>
        <path fill="#6EA9FF" d="M78 43.7l-.1 14.2 3.1 1.8V45.4z"/>
        <path fill="#E0E9FD" d="M73.3 52.2v6.6l3.1 1.8V54z"/>
        <path fill="#6EA9FF" d="M73.4 47.2l-.1 5 3.1 1.8.1-5zM62.4 51v1.6l6.1 3.5v-1.6z"/>
        <g fill="#6EA9FF">
            <path d="M90.2 53.9v1.6l6.1 3.5v-1.6zM90.3 66.7v1.6l6 3.5.1-1.6zM90.2 49.9v1.6l8.5 4.9v-1.6z"/>
        </g>
        <path fill="url(#h)" d="M61.8 72.2L27.9 52.5l16.2-9.3L78 62.9z" transform="translate(17 21)"/>
        <path fill="#A9C7FD" d="M57.7 94.2l-14.2-8.3 6.8-4 14.2 8.3z"/>
        <path fill="url(#i)" d="M4.7 22.2l-.1 20.2c0 1 .6 1.9 1.9 2.7 2.5 1.5 6.6 1.5 9.1 0 1.2-.7 1.9-1.7 1.9-2.6v-20l-12.8-.3z" transform="translate(17 21)"/>
        <path fill="url(#j)" d="M5.8 22.6l4.2 19c0 .1.1.2.2.3.4.2.9.2 1.3 0 .2-.1.3-.3.2-.4L7.4 21.9l-1.6.7z" transform="translate(17 21)"/>
        <path fill="url(#k)" d="M15.7 20c2.5 1.5 2.6 3.8 0 5.3s-6.6 1.5-9.2 0C4 23.9 4 21.5 6.5 20c2.6-1.5 6.7-1.5 9.2 0z" transform="translate(17 21)"/>
        <path fill="url(#l)" d="M16.8 16.4c3.2 1.8 3.2 4.8 0 6.6-3.2 1.8-8.3 1.8-11.5 0-3.2-1.8-3.2-4.8 0-6.6 3.2-1.8 8.4-1.8 11.5 0z" transform="translate(17 21)"/>
        <path fill="url(#m)" d="M15.7 17.1c2.5 1.5 2.6 3.8 0 5.3-2.5 1.5-6.6 1.5-9.2 0-2.5-1.5-2.6-3.9 0-5.3 2.6-1.5 6.7-1.5 9.2 0z" transform="translate(17 21)"/>
        <g transform="translate(17 30)">
            <path fill="url(#n)" d="M6.6 13.4c2.5 1.5 6.7 1.5 9.2 0 .6-.4 1.1-.8 1.4-1.2-.3-.4-.8-.9-1.4-1.2-2.5-1.5-6.7-1.5-9.2 0-.6.4-1.1.8-1.4 1.2.3.4.7.8 1.4 1.2z"/>
            <path fill="url(#o)" d="M6.6 13.4c2.5 1.5 6.7 1.5 9.2 0 .6-.4 1.1-.8 1.4-1.2-.3-.4-.8-.9-1.4-1.2-2.5-1.5-6.7-1.5-9.2 0-.6.4-1.1.8-1.4 1.2.3.4.7.8 1.4 1.2z"/>
            <path fill="url(#p)" d="M9.5 12.9l-2-9.1c-.1-.2-.2-.5-.4-.6L2 .3C1.6.1 1 .2.8.6c-.2.4-.1 1 .3 1.2l4.8 2.7L7.8 13c0 .1.1.2.2.3.4.2.9.2 1.3 0 .1-.1.2-.3.2-.4z"/>
            <circle cx="1.4" cy="1" r="1" fill="url(#q)"/>
        </g>
        <path fill="url(#r)" d="M23.4 7.8l-.7-.5-10.3 14.4c-.1.1 0 .2.1.3.2.1.5.1.7 0l.1-.1L23.4 7.8z" transform="translate(17 21)"/>
        <path fill="url(#s)" d="M26.5 12.9c-1-2-2.1-4.1-3.1-6.1-2.3-.3-4.5-.7-6.8-1-1.5-.2-3-.1-4.1.5-3 1.6-2.5 5.9 1 9.6 3.6 3.7 8.9 5.3 11.9 3.7 2.2-1.2 2.5-3.9 1.1-6.7z" transform="translate(17 21)"/>
        <path stroke="url(#t)" stroke-linecap="round" d="M22.8 7.5L24 5.8" transform="translate(17 21)"/>
    </g>
</svg>
